<svg xmlns="http://www.w3.org/2000/svg" width="16" height="16" fill="none"><path fill="#F04C1C" fill-rule="evenodd" d="M11 3.72c1-.48 3.5.48 4 .96.08.08.16.13.23.18.42.27.77.5.77 4.14 0 3.64-.35 3.87-.77 4.14-.07.05-.15.1-.23.18-.5.48-3 1.44-4 .96-1 .48-2 .72-3 .72s-2-.24-3-.72c-1 .48-3.5-.48-4-.96a1.53 1.53 0 0 0-.23-.18C.35 12.87 0 12.64 0 9c0-3.64.35-3.87.77-4.14.07-.05.15-.1.23-.18.5-.48 3-1.44 4-.96C6 3.24 7 3 8 3s2 .24 3 .72ZM4.75 5.9c0-.5-.4-.9-.88-.9S3 5.4 3 5.9v6.2c0 .5.4.9.87.9.49 0 .88-.4.88-.9v-.95l1.56 1.59c.34.35.9.35 1.23 0a.9.9 0 0 0 0-1.27L5.12 9l2.42-2.47a.9.9 0 0 0 0-1.27.86.86 0 0 0-1.23 0l-1.56 1.6V5.9Zm6.5 6.2c0 .5.4.9.88.9s.87-.4.87-.9V5.9c0-.5-.4-.9-.87-.9-.49 0-.88.4-.88.9v.95L9.7 5.26a.86.86 0 0 0-1.23 0 .9.9 0 0 0 0 1.27L10.88 9l-2.42 2.47a.9.9 0 0 0 0 1.27c.34.35.9.35 1.23 0l1.56-1.6v.96Z" clip-rule="evenodd"/><path fill="#F04C1C" d="M8.5 2.5c-.4-.06-.6-.07-1 0l.5-2c.63-.2 1.5 0 1.5.5s-1 1.5-1 1.5Z"/></svg>