<svg width="16" height="16" viewBox="0 0 16 16" fill="none" xmlns="http://www.w3.org/2000/svg">
<path fill-rule="evenodd" clip-rule="evenodd" d="M3.5 6C4.88071 6 6 4.88071 6 3.5C6 2.11929 4.88071 1 3.5 1C2.11929 1 1 2.11929 1 3.5C1 4.88071 2.11929 6 3.5 6ZM3.5 7C5.433 7 7 5.433 7 3.5C7 1.567 5.433 0 3.5 0C1.567 0 0 1.567 0 3.5C0 5.433 1.567 7 3.5 7Z" fill="currentColor"/>
<path fill-rule="evenodd" clip-rule="evenodd" d="M6 8H1.54L2.13209 7.25999C1.8088 7.14235 1.50498 6.9842 1.22675 6.79169L0.11 8.188C0.0682566 8.2401 0.0373712 8.30004 0.0191658 8.36428C0.000960415 8.42851 -0.00419625 8.49574 0.00400001 8.562L0.394 11.686C0.439348 12.0489 0.615708 12.3827 0.889916 12.6247C1.16412 12.8667 1.51729 13.0001 1.883 13H14.117C14.4827 13.0001 14.8359 12.8667 15.1101 12.6247C15.3843 12.3827 15.5607 12.0489 15.606 11.686L15.996 8.562C16.0043 8.49581 15.9993 8.42862 15.9813 8.36439C15.9633 8.30016 15.9326 8.24018 15.891 8.188L12.191 3.563C12.0504 3.38724 11.8721 3.24537 11.6692 3.14791C11.4663 3.05045 11.2441 2.9999 11.019 3H7.46905C7.48948 3.1638 7.5 3.33067 7.5 3.5C7.5 3.66933 7.48948 3.8362 7.46905 4H11.02C11.0949 4.00011 11.1689 4.01706 11.2364 4.0496C11.3039 4.08214 11.3632 4.12944 11.41 4.188L14.46 8H10C9.86739 8 9.74021 8.05268 9.64645 8.14645C9.55268 8.24021 9.5 8.36739 9.5 8.5C9.5 8.89782 9.34196 9.27936 9.06066 9.56066C8.77936 9.84196 8.39782 10 8 10C7.60218 10 7.22064 9.84196 6.93934 9.56066C6.65804 9.27936 6.5 8.89782 6.5 8.5C6.5 8.36739 6.44732 8.24021 6.35355 8.14645C6.25979 8.05268 6.13261 8 6 8ZM10.45 9H14.934L14.613 11.562C14.5979 11.6829 14.5392 11.7941 14.4478 11.8748C14.3565 11.9554 14.2388 12 14.117 12H1.883C1.76098 12.0002 1.6431 11.9558 1.55156 11.8751C1.46001 11.7944 1.40113 11.6831 1.386 11.562L1.066 9H5.55C5.66476 9.56514 5.97136 10.0732 6.41787 10.4382C6.86438 10.8031 7.42332 11.0025 8 11.0025C8.57668 11.0025 9.13562 10.8031 9.58213 10.4382C10.0286 10.0732 10.3352 9.56514 10.45 9Z" fill="currentColor"/>
<path d="M4 5C4 5.27614 3.77614 5.5 3.5 5.5C3.22386 5.5 3 5.27614 3 5C3 4.72386 3.22386 4.5 3.5 4.5C3.77614 4.5 4 4.72386 4 5Z" fill="currentColor"/>
<path d="M3 2C3 1.72386 3.22386 1.5 3.5 1.5C3.77614 1.5 4 1.72386 4 2V3.75C4 4.02614 3.77614 4.25 3.5 4.25C3.22386 4.25 3 4.02614 3 3.75V2Z" fill="currentColor"/>
</svg>
