<svg xmlns="http://www.w3.org/2000/svg" width="16" height="16" fill="none"><rect width="2.8" height="12.52" y="2.01" fill="#F04C1C" rx="1.4"/><path fill="#F04C1C" d="M7.27 12.14a1.4 1.4 0 1 1-1.98 1.98l-3.87-3.88-1-1A1.4 1.4 0 0 1 2.4 7.28l4.87 4.87Z"/><path fill="#F04C1C" d="M7.27 4.39 2.4 9.26a1.4 1.4 0 0 0 0 1.97L.42 9.25a1.4 1.4 0 0 1 0-1.97L5.3 2.4a1.4 1.4 0 0 1 1.98 1.98Z"/><rect width="2.8" height="12.52" x="16" y="14.52" fill="#F04C1C" rx="1.4" transform="rotate(-180 16 14.52)"/><path fill="#F04C1C" d="M8.73 4.39a1.4 1.4 0 1 1 1.98-1.98l3.87 3.87 1 1a1.4 1.4 0 0 1-1.98 1.98L8.73 4.39Z"/><path fill="#F04C1C" d="m8.73 12.14 4.87-4.87a1.4 1.4 0 0 0 0-1.98l1.98 1.99a1.4 1.4 0 0 1 0 1.97l-4.87 4.87a1.4 1.4 0 0 1-1.98-1.98Z"/></svg>