<svg width="512" height="512" viewBox="0 0 256 256" fill="none" xmlns="http://www.w3.org/2000/svg">

<style>
  #base {
    transform-origin: center;
    animation: base 3s linear infinite;
  }

  #r_arm {
    animation: r_arm 3s linear infinite;
  }

  #l_arm {
    animation: l_arm 3s linear infinite;
  }

  #face {
    animation: face 3s linear infinite;
  }

  @keyframes base {
    0%, 100% {
      transform: translateY(0) rotate(0deg);
    }
    50% {
      transform: translateY(-10px) rotate(4deg);
    }
  }

  @keyframes r_arm {
    0%, 100% {
      transform: translateY(0);
    }
    50% {
      transform: translateY(-10px);
    }
  }

  @keyframes l_arm {
    0%, 100% {
      transform: translateY(0);
    }
    50% {
      transform: translateY(-10px);
    }
  }

  @keyframes face {
    0%, 100% {
      transform: translateY(0);
    }
    50% {
      transform: translateY(-10px);
    }
  }
</style>

<g id="ghost">
<g id="base">
<g id="r_arm">
<path id="Vector 29" d="M19.9024 201.641L17.4634 172.141L23.8048 161.141L57.9508 151.641L78.4384 170.141L52.585 178.641L43.8046 201.641H19.9024Z" fill="#D9D9D9"/>
<path id="Vector 19" d="M65.7556 154.641C65.7556 154.641 33.073 156.641 27.2194 159.641C21.3657 162.641 19.4146 165.641 17.4635 171.641C15.5123 177.641 15.5122 189.141 17.4634 194.141C19.4146 199.141 20.3902 204.141 30.1462 204.141C39.9022 204.141 43.275 202.138 45.268 199.641C47.261 197.145 51.6094 191.641 51.6094 185.141C51.6094 178.641 53.5606 177.641 57.463 176.141C61.3654 174.641 74.536 171.641 74.536 171.641" stroke="#FDFDFD" stroke-width="8" stroke-linecap="round"/>
</g>
<path id="Vector 17" d="M20.3903 123.141C-3.59375 52.4059 84.2921 20.6413 120.389 35.6413C156.486 50.6413 169.657 86.1413 179.413 101.141C189.169 116.141 200.388 132.087 213.071 142.088C225.754 152.088 248.681 177.088 238.437 172.588C228.193 168.088 221.852 177.641 221.852 177.641C221.852 177.641 216.974 184.641 208.193 185.141C199.413 185.642 180.389 185.141 180.389 185.141C155.023 185.141 175.023 230.641 153.072 223.641C131.121 216.641 111.609 208.641 87.2189 193.641C62.8289 178.641 28.2696 146.379 20.3903 123.141Z" fill="#D9D9D9" stroke="#FDFDFD" stroke-width="8"/>
<g id="l_arm">
<path id="Vector 28" d="M142.469 167.434L128.38 152.05L87.5222 158.538L77.2945 193.209L89.4654 208.23L115.952 207.152L121.544 176.177L142.469 167.434Z" fill="#D9D9D9"/>
<path id="Vector 18" d="M130.779 152.505C120.67 148.045 97.2574 156.825 90.3118 159.575C83.3662 162.326 80.2767 173.944 78.9454 181.318C77.614 188.693 77.1703 191.152 80.0312 197.288C82.8921 203.424 90.1229 207.337 94.2623 209.139C98.4017 210.942 110.571 212.233 114.034 206.788C117.497 201.343 121.831 196.571 120.942 187.758C120.052 178.945 121.331 174.612 125.789 171.898C130.248 169.184 142.949 167.525 142.949 167.525" stroke="#FDFDFD" stroke-width="8" stroke-linecap="round"/>
</g>
<g id="face">
<path id="Rectangle 46" d="M59 119.387C59 119.387 59.5 113.141 67 112.141C74.5 111.141 82.5 114.888 85 117.388C87.5 119.888 87 126.387 85 127.387C83 128.387 68.9999 128.388 64 128.388C59.0001 128.388 59 119.387 59 119.387Z" fill="#FDFDFD"/>
<circle id="Ellipse 7" cx="95" cy="97.6414" r="14" fill="#FDFDFD"/>
<circle id="Ellipse 9" cx="47" cy="99.6414" r="14" fill="#FDFDFD"/>
<path id="Rectangle 47" d="M79.3308 74.0398C81.7416 72.3587 115.282 58.7128 118.841 63.4532C122.4 68.1935 121.72 69.9286 120.911 71.1806C120.102 72.4326 85.8021 81.1056 81.4014 81.7672C77.0006 82.4289 76.9201 75.721 79.3308 74.0398Z" fill="#FDFDFD"/>
<path id="Rectangle 48" d="M58.8785 75.0547C56.524 73.3886 23.7147 59.9386 20.2004 64.691C16.6862 69.4433 17.3432 71.1724 18.1299 72.4184C18.9165 73.6644 52.4972 82.1446 56.808 82.7821C61.1187 83.4197 61.233 76.7208 58.8785 75.0547Z" fill="#FDFDFD"/>
</g>
</g>
</g>
</svg>
