<svg width="512" height="512" viewBox="0 0 256 256" fill="none" xmlns="http://www.w3.org/2000/svg">

<style>
  #base {
    transform-origin: center;
    animation: base 3s linear infinite;
  }

  #r_arm {
    animation: r_arm 3s linear infinite;
  }

  #l_arm {
    animation: l_arm 3s linear infinite;
  }

  #face {
    animation: face 3s linear infinite;
  }

  @keyframes base {
    0%, 100% {
      transform: translateY(0) rotate(0deg);
    }
    50% {
      transform: translateY(-10px) rotate(4deg);
    }
  }

  @keyframes r_arm {
    0%, 100% {
      transform: translateY(0);
    }
    50% {
      transform: translateY(-10px);
    }
  }

  @keyframes l_arm {
    0%, 100% {
      transform: translateY(0);
    }
    50% {
      transform: translateY(-10px);
    }
  }

  @keyframes face {
    0%, 100% {
      transform: translateY(0);
    }
    50% {
      transform: translateY(-10px);
    }
  }
</style>

<g id="ghost-basket">
<g id="ghost">
<g id="base">
<g id="r_arm">
<path id="Vector 29" d="M19.9024 201.641L17.4634 172.141L23.8048 161.141L57.9508 151.641L78.4384 170.141L52.585 178.641L43.8046 201.641H19.9024Z" fill="#D9D9D9"/>
<path id="Vector 19" d="M65.7556 154.641C65.7556 154.641 33.073 156.641 27.2194 159.641C21.3657 162.641 19.4146 165.641 17.4635 171.641C15.5123 177.641 15.5122 189.141 17.4634 194.141C19.4146 199.141 20.3902 204.141 30.1462 204.141C39.9022 204.141 43.275 202.138 45.268 199.641C47.261 197.145 51.6094 191.641 51.6094 185.141C51.6094 178.641 53.5606 177.641 57.463 176.141C61.3654 174.641 74.536 171.641 74.536 171.641" stroke="#FDFDFD" stroke-width="8" stroke-linecap="round"/>
<g id="Group 61">
<rect id="Rectangle 70" x="2.77026" y="147.128" width="26" height="34" transform="rotate(-22.5644 2.77026 147.128)" fill="#5B4941"/>
<rect id="Rectangle 54" x="5.38477" y="148.207" width="22" height="32" transform="rotate(-22.5644 5.38477 148.207)" fill="#3D3532"/>
<path id="Rectangle 56" d="M24.621 142.38L17.2334 145.449L20.3032 152.837L27.6908 149.767L24.621 142.38Z" fill="#5A4941"/>
<path id="Rectangle 71" d="M15.3866 146.217L7.99902 149.287L11.0688 156.674L18.4564 153.605L15.3866 146.217Z" fill="#5A4941"/>
<path id="Rectangle 72" d="M19.2238 155.451L11.8362 158.521L14.906 165.909L22.2935 162.839L19.2238 155.451Z" fill="#5A4941"/>
<path id="Rectangle 73" d="M28.4584 151.614L21.0708 154.684L24.1406 162.072L31.5282 159.002L28.4584 151.614Z" fill="#5A4941"/>
<path id="Rectangle 74" d="M32.2955 160.849L24.908 163.918L27.9777 171.306L35.3653 168.236L32.2955 160.849Z" fill="#5A4941"/>
<path id="Rectangle 75" d="M23.0609 164.686L15.6733 167.756L18.7431 175.143L26.1307 172.074L23.0609 164.686Z" fill="#5A4941"/>
<g id="Rectangle 52">
<path fill-rule="evenodd" clip-rule="evenodd" d="M45.7383 180.17L49.7673 189.866L23.9108 200.61L19.8817 190.914L45.7383 180.17Z" fill="#786565"/>
<path d="M27.9398 210.306L53.7964 199.562L49.7673 189.866L23.9108 200.61L27.9398 210.306Z" fill="#A22323"/>
<path d="M40.7499 168.165L14.8933 178.909L19.8817 190.914L45.7383 180.17L40.7499 168.165Z" fill="#A22323"/>
</g>
<path id="Rectangle 76" d="M12.7408 177.637L41.3677 165.742L45.3469 174.015L41.8876 176.114L37.0286 176.148L22.9569 183.981L19.7321 186.644L16.031 186.859L12.7408 177.637Z" fill="#E3E3E3"/>
</g>
</g>
<path id="Vector 17" d="M20.3903 123.141C-3.59375 52.4059 84.2921 20.6413 120.389 35.6413C156.486 50.6413 169.657 86.1413 179.413 101.141C189.169 116.141 200.388 132.087 213.071 142.088C225.754 152.088 248.681 177.088 238.437 172.588C228.193 168.088 221.852 177.641 221.852 177.641C221.852 177.641 216.974 184.641 208.193 185.141C199.413 185.642 180.389 185.141 180.389 185.141C155.023 185.141 175.023 230.641 153.072 223.641C131.121 216.641 111.609 208.641 87.2189 193.641C62.8289 178.641 28.2696 146.379 20.3903 123.141Z" fill="#D9D9D9" stroke="#FDFDFD" stroke-width="8"/>
<g id="l_arm">
<g id="basket">
<g id="Group 66">
<g id="Polygon 4">
<path fill-rule="evenodd" clip-rule="evenodd" d="M90.8433 183.028C90.8433 183.028 96.6864 194.174 97.2283 194.511C97.7702 194.848 98.0705 193.156 98.0705 193.156L90.8433 183.028ZM103.966 183.673C103.424 183.337 90.8433 183.028 90.8433 183.028L103.124 185.028C103.124 185.028 104.508 184.01 103.966 183.673ZM101.439 187.737L90.8433 183.028L99.7548 190.447C99.7548 190.447 100.297 190.784 101.139 189.429C101.981 188.074 101.439 187.737 101.439 187.737Z" fill="#FF9A9A"/>
<path d="M102.823 186.72C102.149 187.803 101.439 187.737 101.439 187.737L90.8433 183.028L103.124 185.028C103.124 185.028 103.497 185.636 102.823 186.72Z" fill="#FFD09A"/>
<path d="M99.7548 190.447C99.7548 190.447 100.297 190.784 99.4545 192.138C98.6124 193.493 98.0705 193.156 98.0705 193.156L90.8433 183.028L99.7548 190.447Z" fill="#FFD09A"/>
</g>
<g id="Polygon 5">
<path fill-rule="evenodd" clip-rule="evenodd" d="M84.8826 179.323C84.8826 179.323 79.0394 168.178 78.4975 167.841C77.9556 167.504 77.6553 169.195 77.6553 169.195L84.8826 179.323ZM71.7601 178.678C72.302 179.015 84.8826 179.323 84.8826 179.323L72.6023 177.323C72.6023 177.323 71.2183 178.341 71.7601 178.678ZM74.2867 174.614L84.8826 179.323L75.971 171.905C75.971 171.905 75.4291 171.568 74.5869 172.923C73.7448 174.277 74.2867 174.614 74.2867 174.614Z" fill="#FF9A9A"/>
<path d="M72.9026 175.632C73.5763 174.548 74.2867 174.614 74.2867 174.614L84.8826 179.323L72.6023 177.323C72.6023 177.323 72.2289 176.716 72.9026 175.632Z" fill="#FFD09A"/>
<path d="M75.971 171.905C75.971 171.905 75.4291 171.568 76.2713 170.213C77.1135 168.859 77.6553 169.195 77.6553 169.195L84.8826 179.323L75.971 171.905Z" fill="#FFD09A"/>
</g>
<g id="Ellipse 10">
<path fill-rule="evenodd" clip-rule="evenodd" d="M90.378 188.611C89.2384 188.752 88.0187 188.656 86.8067 188.313C90.812 186.014 92.8324 184.365 95.6435 180.141C96.0434 181.288 96.1667 182.471 95.9792 183.592C94.184 186.237 92.9213 187.273 90.378 188.611ZM81.4975 184.768C82.2019 185.665 83.096 186.476 84.1574 187.136C88.386 184.033 90.6304 182.027 94.2283 177.583C93.524 176.686 92.6299 175.875 91.5685 175.215C88.2005 179.567 85.9485 181.604 81.4975 184.768ZM88.2677 173.878C86.9949 173.61 85.7311 173.613 84.5778 173.874C82.7919 176.146 81.8256 177.163 79.7467 178.759C79.5754 179.784 79.6635 180.86 79.9851 181.913C83.6564 179.284 85.5012 177.563 88.2677 173.878Z" fill="#FF9A9A"/>
<path d="M84.5778 173.874C82.8926 174.255 81.4434 175.187 80.5476 176.628C80.1354 177.291 79.8718 178.011 79.7467 178.759C81.8256 177.163 82.7919 176.146 84.5778 173.874Z" fill="#FFD09A"/>
<path d="M91.5685 175.215C90.5071 174.555 89.384 174.112 88.2677 173.878C85.5012 177.563 83.6564 179.284 79.9851 181.913C80.2886 182.907 80.8 183.879 81.4975 184.768C85.9485 181.604 88.2005 179.567 91.5685 175.215Z" fill="#FFD09A"/>
<path d="M94.2283 177.583C90.6304 182.027 88.386 184.033 84.1574 187.136C85.0124 187.668 85.9074 188.058 86.8067 188.313C90.812 186.014 92.8324 184.365 95.6435 180.141C95.3331 179.251 94.8561 178.383 94.2283 177.583Z" fill="#FFD09A"/>
<path d="M90.378 188.611C92.3879 188.363 94.1486 187.38 95.1782 185.723C95.5904 185.06 95.854 184.34 95.9792 183.592C94.184 186.237 92.9213 187.273 90.378 188.611Z" fill="#FFD09A"/>
</g>
</g>
<g id="Group 67">
<g id="Polygon 8">
<path fill-rule="evenodd" clip-rule="evenodd" d="M82.9552 189.576C82.9552 189.576 91.2816 199.012 91.8881 199.21C92.4945 199.408 92.3839 197.694 92.3839 197.694L82.9552 189.576ZM95.8545 187.081C95.248 186.883 82.9552 189.576 82.9552 189.576L95.3587 188.597C95.3587 188.597 96.4609 187.279 95.8545 187.081ZM94.3671 191.629L82.9552 189.576L93.3755 194.662C93.3755 194.662 93.9819 194.86 94.4777 193.344C94.9735 191.828 94.3671 191.629 94.3671 191.629Z" fill="#4CB098"/>
<path d="M95.4693 190.312C95.0727 191.524 94.3671 191.629 94.3671 191.629L82.9552 189.576L95.3587 188.597C95.3587 188.597 95.866 189.099 95.4693 190.312Z" fill="#FFE661"/>
<path d="M93.3755 194.662C93.3755 194.662 93.9819 194.86 93.4861 196.376C92.9903 197.892 92.3839 197.694 92.3839 197.694L82.9552 189.576L93.3755 194.662Z" fill="#FFE661"/>
</g>
<g id="Polygon 10">
<path fill-rule="evenodd" clip-rule="evenodd" d="M76.2845 187.394C76.2845 187.394 67.9581 177.958 67.3517 177.76C66.7452 177.561 66.8559 179.276 66.8559 179.276L76.2845 187.394ZM63.3853 189.889C63.9917 190.087 76.2845 187.394 76.2845 187.394L63.8811 188.373C63.8811 188.373 62.7788 189.69 63.3853 189.889ZM64.8727 185.34L76.2845 187.394L65.8643 182.308C65.8643 182.308 65.2578 182.11 64.762 183.626C64.2662 185.142 64.8727 185.34 64.8727 185.34Z" fill="#4CB098"/>
<path d="M63.7704 186.658C64.1671 185.445 64.8727 185.34 64.8727 185.34L76.2845 187.394L63.8811 188.373C63.8811 188.373 63.3738 187.871 63.7704 186.658Z" fill="#FFE661"/>
<path d="M65.8643 182.308C65.8643 182.308 65.2578 182.11 65.7536 180.594C66.2494 179.078 66.8559 179.276 66.8559 179.276L76.2845 187.394L65.8643 182.308Z" fill="#FFE661"/>
</g>
<g id="Ellipse 12">
<path fill-rule="evenodd" clip-rule="evenodd" d="M83.8315 195.108C82.7582 195.516 81.5507 195.713 80.2919 195.668C83.6356 192.483 85.2056 190.4 86.9315 185.629C87.5926 186.648 87.9938 187.768 88.0783 188.901C86.9637 191.897 85.9836 193.204 83.8315 195.108ZM74.2919 193.488C75.1895 194.192 76.2508 194.767 77.4387 195.156C80.8079 191.136 82.5107 188.653 84.9486 183.481C84.0511 182.778 82.9897 182.202 81.8018 181.814C79.5655 186.842 77.8628 189.357 74.2919 193.488ZM78.2777 181.3C76.9778 181.343 75.7509 181.647 74.6928 182.174C73.4984 184.805 72.8018 186.023 71.1622 188.068C71.2394 189.104 71.581 190.128 72.1438 191.075C75.0846 187.648 76.4671 185.538 78.2777 181.3Z" fill="#4CB098"/>
<path d="M74.6928 182.174C73.1466 182.945 71.9606 184.195 71.4332 185.807C71.1906 186.549 71.1058 187.312 71.1622 188.068C72.8018 186.023 73.4984 184.805 74.6928 182.174Z" fill="#FFE661"/>
<path d="M81.8018 181.814C80.6139 181.425 79.4177 181.262 78.2777 181.3C76.4671 185.538 75.0846 187.648 72.1438 191.075C72.6749 191.968 73.4031 192.791 74.2919 193.488C77.8628 189.357 79.5655 186.842 81.8018 181.814Z" fill="#FFE661"/>
<path d="M84.9486 183.481C82.5107 188.653 80.8079 191.136 77.4387 195.156C78.3956 195.469 79.3579 195.635 80.2919 195.668C83.6356 192.483 85.2056 190.4 86.9315 185.629C86.4183 184.838 85.7485 184.109 84.9486 183.481Z" fill="#FFE661"/>
<path d="M83.8315 195.108C85.7248 194.389 87.2011 193.016 87.8073 191.162C88.05 190.42 88.1347 189.658 88.0783 188.901C86.9637 191.897 85.9836 193.204 83.8315 195.108Z" fill="#FFE661"/>
</g>
</g>
<g id="Group 68">
<g id="Polygon 6">
<path fill-rule="evenodd" clip-rule="evenodd" d="M118.718 193.724C118.718 193.724 128.375 201.793 129.004 201.897C129.634 202.002 129.265 200.324 129.265 200.324L118.718 193.724ZM131.092 189.308C130.463 189.204 118.718 193.724 118.718 193.724L130.831 190.882C130.831 190.882 131.722 189.413 131.092 189.308ZM130.309 194.029L118.718 193.724L129.787 197.177C129.787 197.177 130.417 197.281 130.678 195.707C130.939 194.134 130.309 194.029 130.309 194.029Z" fill="#993030"/>
<path d="M131.2 192.56C130.991 193.819 130.309 194.029 130.309 194.029L118.718 193.724L130.831 190.882C130.831 190.882 131.409 191.301 131.2 192.56Z" fill="#FFB388"/>
<path d="M129.787 197.177C129.787 197.177 130.417 197.281 130.156 198.855C129.895 200.428 129.265 200.324 129.265 200.324L118.718 193.724L129.787 197.177Z" fill="#FFB388"/>
</g>
<g id="Polygon 7">
<path fill-rule="evenodd" clip-rule="evenodd" d="M114.861 193.578C114.861 193.578 105.204 185.508 104.575 185.404C103.945 185.3 104.314 186.978 104.314 186.978L114.861 193.578ZM102.487 197.993C103.116 198.097 114.861 193.578 114.861 193.578L102.748 196.419C102.748 196.419 101.857 197.889 102.487 197.993ZM103.27 193.272L114.861 193.578L103.792 190.125C103.792 190.125 103.162 190.021 102.901 191.594C102.64 193.168 103.27 193.272 103.27 193.272Z" fill="#993030"/>
<path d="M102.379 194.741C102.588 193.483 103.27 193.272 103.27 193.272L114.861 193.578L102.748 196.419C102.748 196.419 102.17 196 102.379 194.741Z" fill="#FFB388"/>
<path d="M103.792 190.125C103.792 190.125 103.162 190.021 103.423 188.447C103.684 186.873 104.314 186.978 104.314 186.978L114.861 193.578L103.792 190.125Z" fill="#FFB388"/>
</g>
<g id="Ellipse 11">
<path fill-rule="evenodd" clip-rule="evenodd" d="M121.954 199.562C120.954 200.127 119.79 200.505 118.539 200.651C121.363 196.997 122.6 194.701 123.586 189.723C124.393 190.631 124.959 191.677 125.214 192.785C124.565 195.914 123.793 197.354 121.954 199.562ZM112.279 199.402C113.272 199.962 114.408 200.37 115.641 200.575C118.364 196.092 119.673 193.381 121.301 187.9C120.307 187.34 119.171 186.932 117.938 186.727C116.488 192.035 115.184 194.778 112.279 199.402ZM114.377 186.752C113.098 186.99 111.932 187.476 110.965 188.158C110.182 190.939 109.678 192.248 108.366 194.518C108.599 195.529 109.091 196.491 109.791 197.341C112.18 193.509 113.228 191.214 114.377 186.752Z" fill="#993030"/>
<path d="M110.965 188.158C109.553 189.153 108.57 190.568 108.292 192.242C108.164 193.012 108.196 193.778 108.366 194.518C109.678 192.248 110.182 190.939 110.965 188.158Z" fill="#FFB388"/>
<path d="M117.938 186.727C116.705 186.523 115.498 186.542 114.377 186.752C113.228 191.214 112.18 193.509 109.791 197.341C110.451 198.143 111.295 198.847 112.279 199.402C115.184 194.778 116.488 192.035 117.938 186.727Z" fill="#FFB388"/>
<path d="M121.301 187.9C119.673 193.381 118.364 196.092 115.641 200.575C116.635 200.74 117.611 200.759 118.539 200.651C121.363 196.997 122.6 194.701 123.586 189.723C122.959 189.019 122.187 188.399 121.301 187.9Z" fill="#FFB388"/>
<path d="M121.954 199.562C123.717 198.565 124.968 196.984 125.287 195.06C125.415 194.29 125.384 193.524 125.214 192.785C124.565 195.914 123.793 197.354 121.954 199.562Z" fill="#FFB388"/>
</g>
</g>
<g id="Group 72">
<g id="Polygon 11">
<path fill-rule="evenodd" clip-rule="evenodd" d="M125.134 183.096C125.134 183.096 135.136 181.265 135.568 180.946C136 180.627 134.905 180.047 134.905 180.047L125.134 183.096ZM130.263 173.759C129.831 174.078 125.134 183.096 125.134 183.096L130.926 174.657C130.926 174.657 130.695 173.44 130.263 173.759ZM132.252 176.454L125.134 183.096L133.579 178.251C133.579 178.251 134.011 177.931 133.348 177.033C132.685 176.135 132.252 176.454 132.252 176.454Z" fill="#FFA7A7"/>
<path d="M132.022 175.236C132.552 175.955 132.252 176.454 132.252 176.454L125.134 183.096L130.926 174.657C130.926 174.657 131.491 174.518 132.022 175.236Z" fill="#F46868"/>
<path d="M133.579 178.251C133.579 178.251 134.011 177.931 134.674 178.83C135.337 179.728 134.905 180.047 134.905 180.047L125.134 183.096L133.579 178.251Z" fill="#F46868"/>
</g>
<g id="Polygon 12">
<path fill-rule="evenodd" clip-rule="evenodd" d="M109.22 194.843C109.22 194.843 99.2188 196.674 98.7865 196.993C98.3542 197.312 99.4496 197.891 99.4496 197.891L109.22 194.843ZM104.091 204.18C104.524 203.861 109.22 194.843 109.22 194.843L103.428 203.282C103.428 203.282 103.659 204.499 104.091 204.18ZM102.102 201.485L109.22 194.843L100.776 199.688C100.776 199.688 100.344 200.007 101.007 200.906C101.67 201.804 102.102 201.485 102.102 201.485Z" fill="#FFA7A7"/>
<path d="M102.333 202.702C101.802 201.984 102.102 201.485 102.102 201.485L109.22 194.843L103.428 203.282C103.428 203.282 102.863 203.421 102.333 202.702Z" fill="#F46868"/>
<path d="M100.776 199.688C100.776 199.688 100.344 200.007 99.6805 199.109C99.0173 198.211 99.4496 197.891 99.4496 197.891L109.22 194.843L100.776 199.688Z" fill="#F46868"/>
</g>
<g id="Vector">
<path fill-rule="evenodd" clip-rule="evenodd" d="M108.979 199.235C109.74 199.475 110.68 199.316 111.462 198.739L111.893 198.421L109.176 189.324L106.588 191.234L108.979 199.235ZM117.068 194.602L114.48 196.511L111.763 187.415L114.35 185.505L117.068 194.602ZM119.655 192.692L122.242 190.782L119.525 181.685L116.937 183.595L119.655 192.692ZM127.417 186.962L124.83 188.872L122.112 179.776L123.405 178.821C123.844 178.497 124.332 178.305 124.811 178.241L127.417 186.962Z" fill="#F46868"/>
<path d="M129.54 182.619L126.888 179.026C126.425 178.399 125.632 178.132 124.811 178.241L127.417 186.962L128.71 186.008C129.901 185.129 130.273 183.612 129.54 182.619Z" fill="#FFA7A7"/>
<path d="M122.242 190.782L124.83 188.872L122.112 179.776L119.525 181.685L122.242 190.782Z" fill="#FFA7A7"/>
<path d="M117.068 194.602L119.655 192.692L116.937 183.595L114.35 185.505L117.068 194.602Z" fill="#FFA7A7"/>
<path d="M111.893 198.421L114.48 196.511L111.763 187.415L109.176 189.324L111.893 198.421Z" fill="#FFA7A7"/>
<path d="M105.327 194.941L107.98 198.534C108.231 198.875 108.58 199.11 108.979 199.235L106.588 191.234L106.157 191.553C104.966 192.432 104.595 193.948 105.327 194.941Z" fill="#FFA7A7"/>
</g>
</g>
<g id="Group 70">
<rect id="Rectangle 70_2" x="83.5249" y="170.624" width="14.9411" height="19.5384" transform="rotate(-2.65227 83.5249 170.624)" fill="#5B4941"/>
<rect id="Rectangle 54_2" x="84.7263" y="171.719" width="12.6425" height="18.389" transform="rotate(-2.65227 84.7263 171.719)" fill="#3D3532"/>
<path id="Rectangle 56_2" d="M96.2598 172.335L91.6675 172.548L91.8802 177.14L96.4726 176.927L96.2598 172.335Z" fill="#5A4941"/>
<path id="Rectangle 71_2" d="M90.5196 172.601L85.9272 172.814L86.14 177.406L90.7323 177.194L90.5196 172.601Z" fill="#5A4941"/>
<path id="Rectangle 72_2" d="M90.7857 178.341L86.1934 178.554L86.4061 183.147L90.9984 182.934L90.7857 178.341Z" fill="#5A4941"/>
<path id="Rectangle 73_2" d="M96.5259 178.076L91.9336 178.288L92.1463 182.881L96.7387 182.668L96.5259 178.076Z" fill="#5A4941"/>
<path id="Rectangle 74_2" d="M96.792 183.816L92.1997 184.029L92.4124 188.621L97.0048 188.408L96.792 183.816Z" fill="#5A4941"/>
<path id="Rectangle 75_2" d="M91.0513 184.082L86.459 184.295L86.6717 188.887L91.2641 188.674L91.0513 184.082Z" fill="#5A4941"/>
<g id="Rectangle 52_2">
<path fill-rule="evenodd" clip-rule="evenodd" d="M100.274 196.886L100.553 202.913L84.4799 203.658L84.2007 197.631L100.274 196.886Z" fill="#786565"/>
<path d="M84.7591 209.685L100.832 208.941L100.553 202.913L84.4799 203.658L84.7591 209.685Z" fill="#A22323"/>
<path d="M99.9282 189.423L83.855 190.168L84.2007 197.631L100.274 196.886L99.9282 189.423Z" fill="#A22323"/>
</g>
<path id="Rectangle 76_2" d="M82.9406 189.06L100.736 188.236L101.267 193.484L98.9868 193.942L96.3548 193.009L87.2189 194.487L84.9552 195.295L82.9136 194.686L82.9406 189.06Z" fill="#E3E3E3"/>
</g>
<g id="Group 71">
<rect id="Rectangle 70_3" x="111.073" y="165.796" width="14.9411" height="19.5384" transform="rotate(27.5067 111.073 165.796)" fill="#DDCAC1"/>
<rect id="Rectangle 54_3" x="111.561" y="167.347" width="12.6425" height="18.389" transform="rotate(27.5067 111.561 167.347)" fill="#C6B4AC"/>
<path id="Rectangle 56_3" d="M121.224 173.674L117.147 171.551L115.023 175.628L119.101 177.752L121.224 173.674Z" fill="#DDCAC1"/>
<path id="Rectangle 71_3" d="M116.127 171.02L112.05 168.897L109.927 172.974L114.004 175.098L116.127 171.02Z" fill="#DDCAC1"/>
<path id="Rectangle 72_3" d="M113.473 176.117L109.396 173.994L107.272 178.071L111.35 180.194L113.473 176.117Z" fill="#DDCAC1"/>
<path id="Rectangle 73_3" d="M118.57 178.771L114.493 176.648L112.369 180.725L116.447 182.849L118.57 178.771Z" fill="#DDCAC1"/>
<path id="Rectangle 74_3" d="M115.916 183.868L111.838 181.745L109.715 185.822L113.793 187.945L115.916 183.868Z" fill="#DDCAC1"/>
<path id="Rectangle 75_3" d="M110.819 181.214L106.741 179.091L104.618 183.168L108.696 185.291L110.819 181.214Z" fill="#DDCAC1"/>
<g id="Rectangle 52_3">
<path fill-rule="evenodd" clip-rule="evenodd" d="M112.36 196.918L109.573 202.27L95.3018 194.838L98.0885 189.486L112.36 196.918Z" fill="#6A8785"/>
<path d="M92.515 200.19L106.786 207.621L109.573 202.27L95.3018 194.838L92.515 200.19Z" fill="#444444"/>
<path d="M115.81 190.292L101.539 182.86L98.0885 189.486L112.36 196.918L115.81 190.292Z" fill="#444444"/>
</g>
<path id="Rectangle 76_3" d="M101.305 181.443L117.106 189.671L114.928 194.476L112.727 193.725L110.92 191.597L102.278 188.285L99.915 187.846L98.4554 186.294L101.305 181.443Z" fill="#E3E3E3"/>
</g>
<g id="Group 69">
<g id="Polygon 9">
<path fill-rule="evenodd" clip-rule="evenodd" d="M112.319 202.224C112.319 202.224 120.645 211.66 121.252 211.858C121.858 212.056 121.748 210.342 121.748 210.342L112.319 202.224ZM125.218 199.729C124.612 199.531 112.319 202.224 112.319 202.224L124.722 201.245C124.722 201.245 125.825 199.927 125.218 199.729ZM123.731 204.277L112.319 202.224L122.739 207.31C122.739 207.31 123.346 207.508 123.842 205.992C124.337 204.476 123.731 204.277 123.731 204.277Z" fill="#AC7E9D"/>
<path d="M124.833 202.959C124.436 204.172 123.731 204.277 123.731 204.277L112.319 202.224L124.722 201.245C124.722 201.245 125.23 201.747 124.833 202.959Z" fill="#F2DFFB"/>
<path d="M122.739 207.31C122.739 207.31 123.346 207.508 122.85 209.024C122.354 210.54 121.748 210.342 121.748 210.342L112.319 202.224L122.739 207.31Z" fill="#F2DFFB"/>
</g>
<g id="Polygon 11_2">
<path fill-rule="evenodd" clip-rule="evenodd" d="M105.648 200.042C105.648 200.042 97.3219 190.606 96.7154 190.408C96.109 190.209 96.2196 191.924 96.2196 191.924L105.648 200.042ZM92.749 202.537C93.3555 202.735 105.648 200.042 105.648 200.042L93.2448 201.021C93.2448 201.021 92.1426 202.338 92.749 202.537ZM94.2364 197.988L105.648 200.042L95.228 194.956C95.228 194.956 94.6216 194.758 94.1258 196.274C93.63 197.79 94.2364 197.988 94.2364 197.988Z" fill="#AC7E9D"/>
<path d="M93.1342 199.306C93.5308 198.093 94.2364 197.988 94.2364 197.988L105.648 200.042L93.2448 201.021C93.2448 201.021 92.7375 200.519 93.1342 199.306Z" fill="#F2DFFB"/>
<path d="M95.228 194.956C95.228 194.956 94.6216 194.758 95.1174 193.242C95.6132 191.726 96.2196 191.924 96.2196 191.924L105.648 200.042L95.228 194.956Z" fill="#F2DFFB"/>
</g>
<g id="Ellipse 13">
<path fill-rule="evenodd" clip-rule="evenodd" d="M113.195 207.756C112.122 208.164 110.915 208.361 109.656 208.316C112.999 205.131 114.569 203.048 116.295 198.277C116.956 199.296 117.358 200.416 117.442 201.549C116.327 204.545 115.347 205.852 113.195 207.756ZM103.656 206.136C104.553 206.84 105.615 207.415 106.802 207.804C110.172 203.784 111.875 201.301 114.312 196.129C113.415 195.425 112.353 194.85 111.166 194.462C108.929 199.49 107.227 202.004 103.656 206.136ZM107.641 193.948C106.342 193.991 105.115 194.294 104.057 194.822C102.862 197.453 102.166 198.671 100.526 200.716C100.603 201.752 100.945 202.776 101.508 203.722C104.448 200.296 105.831 198.185 107.641 193.948Z" fill="#AC7E9D"/>
<path d="M104.057 194.822C102.51 195.593 101.324 196.843 100.797 198.455C100.554 199.197 100.47 199.96 100.526 200.716C102.166 198.671 102.862 197.453 104.057 194.822Z" fill="#F2DFFB"/>
<path d="M111.166 194.462C109.978 194.073 108.781 193.91 107.641 193.948C105.831 198.185 104.448 200.296 101.508 203.722C102.039 204.615 102.767 205.439 103.656 206.136C107.227 202.004 108.929 199.49 111.166 194.462Z" fill="#F2DFFB"/>
<path d="M114.312 196.129C111.875 201.301 110.172 203.784 106.802 207.804C107.759 208.117 108.722 208.283 109.656 208.316C112.999 205.131 114.569 203.048 116.295 198.277C115.782 197.486 115.112 196.757 114.312 196.129Z" fill="#F2DFFB"/>
<path d="M113.195 207.756C115.089 207.037 116.565 205.664 117.171 203.81C117.414 203.068 117.498 202.306 117.442 201.549C116.327 204.545 115.347 205.852 113.195 207.756Z" fill="#F2DFFB"/>
</g>
</g>
<g id="Group 73">
<g id="Polygon 11_3">
<path fill-rule="evenodd" clip-rule="evenodd" d="M90.9138 200.201C90.9138 200.201 98.2395 207.252 98.751 207.416C99.2624 207.581 99.0932 206.354 99.0932 206.354L90.9138 200.201ZM101.489 198.914C100.977 198.749 90.9138 200.201 90.9138 200.201L101.147 199.977C101.147 199.977 102 199.078 101.489 198.914ZM100.462 202.102L90.9138 200.201L99.7777 204.228C99.7777 204.228 100.289 204.393 100.631 203.33C100.974 202.267 100.462 202.102 100.462 202.102Z" fill="#C6C6C6"/>
<path d="M101.316 201.204C101.042 202.054 100.462 202.102 100.462 202.102L90.9138 200.201L101.147 199.977C101.147 199.977 101.59 200.354 101.316 201.204Z" fill="#F7F7F7"/>
<path d="M99.7777 204.228C99.7777 204.228 100.289 204.393 99.9469 205.455C99.6047 206.518 99.0932 206.354 99.0932 206.354L90.9138 200.201L99.7777 204.228Z" fill="#F7F7F7"/>
</g>
<g id="Polygon 12_2">
<path fill-rule="evenodd" clip-rule="evenodd" d="M72.0864 194.139C72.0864 194.139 64.7607 187.088 64.2493 186.923C63.7378 186.758 63.907 187.986 63.907 187.986L72.0864 194.139ZM61.5114 195.426C62.0229 195.59 72.0864 194.139 72.0864 194.139L61.8537 194.363C61.8537 194.363 61 195.261 61.5114 195.426ZM62.5381 192.237L72.0864 194.139L63.2226 190.111C63.2226 190.111 62.7111 189.947 62.3689 191.01C62.0267 192.072 62.5381 192.237 62.5381 192.237Z" fill="#C6C6C6"/>
<path d="M61.6845 193.135C61.9582 192.285 62.5381 192.237 62.5381 192.237L72.0864 194.139L61.8537 194.363C61.8537 194.363 61.4107 193.986 61.6845 193.135Z" fill="#F7F7F7"/>
<path d="M63.2226 190.111C63.2226 190.111 62.7111 189.947 63.0534 188.884C63.3956 187.821 63.907 187.986 63.907 187.986L72.0864 194.139L63.2226 190.111Z" fill="#F7F7F7"/>
</g>
<g id="Vector_2">
<path fill-rule="evenodd" clip-rule="evenodd" d="M68.3792 196.506C68.6287 197.265 69.3066 197.936 70.2315 198.233L70.7416 198.398L76.5405 190.88L73.4795 189.895L68.3792 196.506ZM76.8637 200.369L73.8027 199.383L79.6015 191.866L82.6625 192.852L76.8637 200.369ZM79.9247 201.354L82.9857 202.34L88.7845 194.823L85.7235 193.837L79.9247 201.354ZM89.1077 204.311L86.0467 203.326L91.8455 195.808L93.376 196.301C93.8948 196.468 94.3359 196.753 94.6673 197.104L89.1077 204.311Z" fill="#F7F7F7"/>
<path d="M93.8735 203.5L95.2424 199.248C95.4812 198.507 95.2357 197.707 94.6673 197.104L89.1077 204.311L90.6382 204.804C92.047 205.258 93.4955 204.674 93.8735 203.5Z" fill="#C6C6C6"/>
<path d="M82.9857 202.34L86.0467 203.326L91.8455 195.808L88.7845 194.823L82.9857 202.34Z" fill="#C6C6C6"/>
<path d="M76.8637 200.369L79.9247 201.354L85.7235 193.837L82.6625 192.852L76.8637 200.369Z" fill="#C6C6C6"/>
<path d="M70.7416 198.398L73.8027 199.383L79.6015 191.866L76.5405 190.88L70.7416 198.398Z" fill="#C6C6C6"/>
<path d="M69.734 191.035L68.3651 195.286C68.2353 195.69 68.2486 196.11 68.3792 196.506L73.4795 189.895L72.9693 189.731C71.5605 189.277 70.112 189.861 69.734 191.035Z" fill="#C6C6C6"/>
</g>
</g>
<g id="Vector_3">
<path d="M81.5 179.182L77 179.591L77 198.591L81.5 198.591L81.5 179.182Z" fill="#734D2A"/>
<path d="M77 179.591L81.5 179.182L81.5 174.591C78.5 175.091 77.0003 176.091 77 179.591Z" fill="#734D2A"/>
<path d="M116.5 179.182L121 179.591L121 198.591L116.5 198.591L116.5 179.182Z" fill="#734D2A"/>
<path d="M121 179.591L116.5 179.182L116.5 174.591C119.5 174.591 121 176.091 121 179.591Z" fill="#734D2A"/>
<path d="M81.5 179.182C81.5 179.182 90 177.591 99 177.591C108 177.591 116.5 179.182 116.5 179.182L116.5 174.591C116.5 174.591 107 173 99 173C91 173 81.5 174.591 81.5 174.591L81.5 179.182Z" fill="#734D2A"/>
</g>
<g id="Rectangle 49">
<path d="M83.2548 246.034C83.2548 246.034 80.0052 247.057 80.0052 226.205C80.0052 205.353 83.2548 196.462 83.2548 196.462C83.2548 196.462 83.2548 196.435 83.2619 196.387C83.2532 195.974 82.567 193.983 70.1309 193.983C56.2572 193.983 57.0071 229.675 57.0071 229.675C57.0071 229.675 57.007 247.521 70.1309 247.521C83.2548 247.521 83.2548 246.034 83.2548 246.034Z" fill="#DC812E"/>
<path d="M83.2548 196.462C83.2548 196.462 80.0052 205.353 80.0052 226.205C80.0052 247.057 83.2548 246.034 83.2548 246.034C83.2548 246.034 83.2548 250 99.0035 250C114.752 250 114.752 246.034 114.752 246.034C114.752 246.034 117.002 246.901 117.002 226.205C117.002 205.509 114.752 196.462 114.752 196.462C114.752 196.462 114.752 192 99.0035 192C84.4596 192 83.347 195.805 83.2619 196.387C83.2629 196.435 83.2548 196.462 83.2548 196.462Z" fill="#F89B46"/>
<path d="M114.752 196.462C114.752 196.462 117.002 205.509 117.002 226.205C117.002 246.901 114.752 246.034 114.752 246.034C114.752 246.034 114.752 247.521 127.876 247.521C141 247.521 141 229.675 141 229.675C141 229.675 141 193.983 127.876 193.983C114.752 193.983 114.752 196.462 114.752 196.462Z" fill="#DC812E"/>
</g>
<path id="Rectangle 50" d="M77.3064 212.693C79.6496 208.784 91.9515 212.692 93.7089 213.995C95.4662 215.298 96.052 217.253 91.3657 221.813C86.6793 226.372 74.9632 216.602 77.3064 212.693Z" fill="#6B340C"/>
<path id="Rectangle 51" d="M120.694 212.693C118.35 208.784 106.049 212.692 104.291 213.995C102.534 215.298 101.948 217.253 106.634 221.813C111.321 226.372 123.037 216.602 120.694 212.693Z" fill="#6B340C"/>
<path id="Vector_4" d="M76 229L79.45 237L86.35 233L94.975 237L99 235L103.025 237L111.65 233L118.55 237L122 229L116.25 230L111.65 228L103.025 231L99 229L94.975 231L86.35 228L81.75 230L76 229Z" fill="#6B340C"/>
</g>
<path id="Vector 28" d="M141.394 150.39L127.305 135.006L86.4468 141.494L76.2191 176.165L88.3899 191.186L114.877 190.108L120.468 159.134L141.394 150.39Z" fill="#D9D9D9"/>
<path id="Vector 18" d="M129.242 135.863C119.134 131.403 95.721 140.183 88.7754 142.934C81.8298 145.685 78.7403 157.302 77.409 164.677C76.0777 172.052 75.6339 174.51 78.4948 180.646C81.3558 186.782 88.5865 190.696 92.7259 192.498C96.8653 194.3 109.034 195.591 112.498 190.146C115.961 184.701 120.295 179.93 119.405 171.117C118.516 162.304 119.795 157.97 124.253 155.256C128.712 152.543 141.413 150.884 141.413 150.884" stroke="#FDFDFD" stroke-width="8" stroke-linecap="round"/>
</g>
<g id="face">
<path id="Rectangle 46" d="M59 119.387C59 119.387 59.5 113.141 67 112.141C74.5 111.141 82.5 114.888 85 117.388C87.5 119.888 87 126.387 85 127.387C83 128.387 68.9999 128.388 64 128.388C59.0001 128.388 59 119.387 59 119.387Z" fill="#FDFDFD"/>
<circle id="Ellipse 7" cx="95" cy="97.6414" r="14" fill="#FDFDFD"/>
<circle id="Ellipse 9" cx="47" cy="99.6414" r="14" fill="#FDFDFD"/>
<path id="Rectangle 47" d="M79.3308 74.0398C81.7416 72.3587 115.282 58.7128 118.841 63.4532C122.4 68.1935 121.72 69.9286 120.911 71.1806C120.102 72.4326 85.8021 81.1056 81.4014 81.7672C77.0006 82.4289 76.9201 75.721 79.3308 74.0398Z" fill="#FDFDFD"/>
<path id="Rectangle 48" d="M58.8785 75.0547C56.524 73.3886 23.7147 59.9386 20.2004 64.691C16.6862 69.4433 17.3432 71.1724 18.1299 72.4184C18.9165 73.6644 52.4972 82.1446 56.808 82.7821C61.1187 83.4197 61.233 76.7208 58.8785 75.0547Z" fill="#FDFDFD"/>
</g>
</g>
</g>
</g>
</svg>
