<svg width="512" height="512" viewBox="-5 0 340 308" fill="none" xmlns="http://www.w3.org/2000/svg">
<style>
  #base {
    transform-origin: center;
    animation: base 3s linear infinite;
  }

  #r_arm {
    animation: r_arm 3s linear infinite;
  }

  #l_arm {
    animation: l_arm 3s linear infinite;
  }

  #face {
    animation: face 3s linear infinite;
  }

  @keyframes base {
    0%, 100% {
      transform: translateY(0) rotate(0deg);
    }
    50% {
      transform: translateY(-10px) rotate(4deg);
    }
  }

  @keyframes r_arm {
    0%, 100% {
      transform: translateY(0);
    }
    50% {
      transform: translateY(-10px);
    }
  }

  @keyframes l_arm {
    0%, 100% {
      transform: translateY(0);
    }
    50% {
      transform: translateY(-10px);
    }
  }

  @keyframes face {
    0%, 100% {
      transform: translateY(0);
    }
    50% {
      transform: translateY(-10px);
    }
  }
</style>
<g id="ghost-witch">
<g id="base">
<path id="hat_back" d="M186.673 95.2531C186.673 95.2531 229.487 134.198 244.697 148.478C259.908 162.758 195.709 155.805 170.899 135.228C130.466 112.735 89.7751 125.76 49.2136 121.866C8.65197 117.971 -11.1058 96.5584 6.39961 84.2187C22.3746 72.9578 41.6597 70.4435 61.0441 72.8146L106.677 76.4297C140.534 75.7082 158.903 77.192 186.673 95.2531Z" fill="#422D4E"/>
<g id="r_arm">
<path id="Vector 29" d="M48.9024 253.641L46.4634 224.141L52.8048 213.141L86.9508 203.641L107.438 222.141L81.585 230.641L72.8046 253.641H48.9024Z" fill="#D9D9D9"/>
<path id="Vector 19" d="M94.7556 206.641C94.7556 206.641 62.073 208.641 56.2194 211.641C50.3657 214.641 48.4146 217.641 46.4635 223.641C44.5123 229.641 44.5122 241.141 46.4634 246.141C48.4146 251.141 49.3902 256.141 59.1462 256.141C68.9022 256.141 72.275 254.138 74.268 251.641C76.261 249.145 80.6094 243.641 80.6094 237.141C80.6094 230.641 82.5606 229.641 86.463 228.141C90.3654 226.641 103.536 223.641 103.536 223.641" stroke="#FDFDFD" stroke-width="8" stroke-linecap="round"/>
</g>
<path id="Vector 17" d="M49.3903 175.141C25.4063 104.406 113.292 72.6413 149.389 87.6413C185.486 102.641 198.657 138.141 208.413 153.141C218.169 168.141 229.388 184.087 242.071 194.088C254.754 204.088 277.681 229.088 267.437 224.588C257.193 220.088 250.852 229.641 250.852 229.641C250.852 229.641 245.974 236.641 237.193 237.141C228.413 237.642 209.389 237.141 209.389 237.141C184.023 237.141 204.023 282.641 182.072 275.641C160.121 268.641 140.609 260.641 116.219 245.641C91.8289 230.641 57.2696 198.379 49.3903 175.141Z" fill="#D9D9D9" stroke="#FDFDFD" stroke-width="8"/>
<g id="bloom">
<path id="Vector 30" d="M25.1936 260C25.1936 260 14.6936 265.5 8.1936 263C1.6936 260.5 1.6935 253.5 2.1936 251.5C2.6937 249.5 13.6936 240 20.1936 240L33.6936 242L55.6936 243.5L90.6936 245.5L130.194 243.5L189.694 251.5H246.194V260H185.694L133.694 253.5H80.1936C80.1936 253.5 52.1936 251.5 45.1936 251.5C38.1936 251.5 25.1936 260 25.1936 260Z" fill="#DBA753"/>
<g id="Vector 31">
<path d="M182.194 250L186.694 261.5C186.694 261.5 190.706 261.557 196.694 261.691V250.126C188.056 250.165 182.194 250 182.194 250Z" fill="#934400"/>
<path d="M196.694 250.126V261.691C198.094 261.723 199.603 261.758 201.194 261.798V250.089C199.627 250.108 198.122 250.12 196.694 250.126Z" fill="#4B2301"/>
<path d="M318.694 254L289.194 256L329.694 255.571L318.694 254Z" fill="#4B2301"/>
<path d="M331.694 247.5H324.694L302.194 250.089L328.694 249L331.694 247.5Z" fill="#4B2301"/>
<path fill-rule="evenodd" clip-rule="evenodd" d="M242.694 247.5C267.694 244 287.694 243.5 297.694 243.5C307.694 243.5 331.694 243.5 331.694 243.5L324.694 247.5L302.194 250.089L328.694 249L318.694 254L289.194 256L329.694 255.571L332.694 256L328.694 258.5L332.694 261.5L293.694 262L321.194 264.5L332.694 268C332.694 268 303.194 269.5 285.694 268C276.944 267.25 269.694 266.5 262.444 265.75C255.194 265 247.944 264.25 239.194 263.5C229.005 262.627 212.885 262.092 201.194 261.798V250.089C213.463 249.938 229.533 249.342 242.694 247.5Z" fill="#934400"/>
<path d="M321.194 264.5L332.694 261.5L293.694 262L321.194 264.5Z" fill="#4B2301"/>
</g>
</g>
<g id="l_arm">
<path id="Vector 28" d="M171.469 219.434L157.38 204.05L116.522 210.538L106.295 245.209L118.465 260.23L144.952 259.152L150.544 228.177L171.469 219.434Z" fill="#D9D9D9"/>
<path id="Vector 18" d="M159.779 204.505C149.67 200.045 126.257 208.825 119.312 211.575C112.366 214.326 109.277 225.944 107.945 233.318C106.614 240.693 106.17 243.152 109.031 249.288C111.892 255.424 119.123 259.337 123.262 261.139C127.402 262.942 139.571 264.233 143.034 258.788C146.497 253.343 150.831 248.571 149.942 239.758C149.052 230.945 150.331 226.612 154.789 223.898C159.248 221.184 171.949 219.525 171.949 219.525" stroke="#FDFDFD" stroke-width="8" stroke-linecap="round"/>
</g>
<g id="face">
<path id="Rectangle 46" d="M88 171.387C88 171.387 88.5 165.141 96 164.141C103.5 163.141 111.5 166.888 114 169.388C116.5 171.888 116 178.387 114 179.387C112 180.387 97.9999 180.388 93 180.388C88.0001 180.388 88 171.387 88 171.387Z" fill="#FDFDFD"/>
<circle id="Ellipse 7" cx="124" cy="149.641" r="14" fill="#FDFDFD"/>
<circle id="Ellipse 9" cx="76" cy="151.641" r="14" fill="#FDFDFD"/>
<path id="Rectangle 47" d="M108.331 126.04C110.742 124.359 144.282 110.713 147.841 115.453C151.4 120.194 150.72 121.929 149.911 123.181C149.102 124.433 114.802 133.106 110.401 133.767C106.001 134.429 105.92 127.721 108.331 126.04Z" fill="#FDFDFD"/>
<path id="Rectangle 48" d="M87.8785 127.055C85.524 125.389 52.7147 111.939 49.2004 116.691C45.6862 121.443 46.3432 123.172 47.1299 124.418C47.9165 125.664 81.4972 134.145 85.808 134.782C90.1187 135.42 90.233 128.721 87.8785 127.055Z" fill="#FDFDFD"/>
</g>
<g id="hat_front">
<path d="M144.5 65.5L119.603 56.5891L119 60L114.689 64H131.5L144.5 65.5Z" fill="#5E406F"/>
<path d="M175.952 69.619H166L177.587 73.5L175.952 69.619Z" fill="#5E406F"/>
<path d="M109.384 72C106.799 73.4318 106.702 74.3981 106.643 76.134C134.366 75.5412 151.707 76.4317 172.323 86.7191L175.029 82.511C152.66 71.0276 136.753 69.1007 109.384 72Z" fill="#654C3A"/>
<path d="M186.658 95.0274C187.6 92.8676 188.111 91.6494 183.276 87C182.687 86.6633 182.104 86.3326 181.525 86.0078L180.245 91.0386C182.332 92.2693 184.466 93.5965 186.658 95.0274Z" fill="#654C3A"/>
<path fill-rule="evenodd" clip-rule="evenodd" d="M109.384 72L114.689 64H131.5L144.5 65.5L119.603 56.5891L182.714 0.5L216.523 20.7568H182.714L175.952 69.619H166L177.587 73.5L183.276 87C182.687 86.6633 182.104 86.3326 181.525 86.0078L181.849 84.7356L175.849 81.2356L175.029 82.511C152.66 71.0276 136.753 69.1007 109.384 72Z" fill="#6C4D7D"/>
<path d="M244.697 148.45C229.483 134.117 186.658 95.0274 186.658 95.0274C184.466 93.5965 182.332 92.2693 180.245 91.0386L180 92L179.936 92.25L171.374 88.1961L171.5 88L172.323 86.7191C151.707 76.4317 134.366 75.5412 106.643 76.134L61 72.5055C72.286 73.8909 83.6056 76.9376 94.3255 80.8816C115.743 88.7612 152.593 119.771 167.293 132.141C168.704 133.328 169.911 134.344 170.881 135.151C195.697 155.804 259.911 162.783 244.697 148.45Z" fill="#6C4D7D"/>
<path d="M179 91L179.181 90.4584L176.871 89.1988L176.625 89.8123L179 91Z" fill="#6C4D7D"/>
<path d="M173.431 87.3233L173 88L175.5 89.25L175.806 88.6183L173.431 87.3233Z" fill="#6C4D7D"/>
<path d="M176.5 82.511L176.124 83.1006L177.994 84.1071L178.288 83.5L176.5 82.511Z" fill="#6C4D7D"/>
<path d="M180.795 85.615L181 85L179 83.8938L178.751 84.5146L180.795 85.615Z" fill="#6C4D7D"/>
<path fill-rule="evenodd" clip-rule="evenodd" d="M175.849 81.2356L181.849 84.7356L181.525 86.0078L180.245 91.0386L180 92L179.936 92.25L171.374 88.1961L171.5 88L172.323 86.7191L175.029 82.511L175.849 81.2356ZM179.181 90.4584L180.795 85.615L181 85L179 83.8938L178.751 84.5146L177.994 84.1071L178.288 83.5L176.5 82.511L176.124 83.1006L173.431 87.3233L173 88L175.5 89.25L175.806 88.6183L176.871 89.1988L176.625 89.8123L179 91L179.181 90.4584Z" fill="#D9DB62"/>
<path d="M179.181 90.4584L180.795 85.615L178.751 84.5146L177.994 84.1071L176.124 83.1006L173.431 87.3233L175.806 88.6183L176.871 89.1988L179.181 90.4584Z" fill="#654C3A"/>
</g>
</g>
</g>
</svg>
