<svg width="80" height="80" viewBox="0 0 80 80" fill="none" xmlns="http://www.w3.org/2000/svg">

<style>
#body {
  transform-origin: 40px 46px;
  animation: body 2s infinite;
}

#head_frame {
  transform-origin: 40px 46px;
  animation: body 3s infinite;
}

#head {
  transform-origin: 40px 43px;
  animation: head 10s infinite;
}

#r_eye_lid_3, #l_eye_lid_3 {
  opacity: 0;
  animation: eye_lid_3 10s infinite;
}

#r_eye_lid_2, #l_eye_lid_2 {
  transform-origin: 40px 46px;
  animation: eye_lid_2 10s infinite;
}

#r_eye_lid_1, #l_eye_lid_1 {
  transform-origin: 40px 46px;
  animation: eye_lid_1 10s infinite;
}

#r_eye_1, #r_eye_2, #r_eye_3, #l_eye_1, #l_eye_2, #l_eye_3 {
  transform-origin: 40px 46px;
  animation: eyes 10s infinite;
}

#l_leg_1 {
  transform-origin: 40px 41.6px;
  animation: l_legs 2s infinite;
}

#l_leg_2 {
  transform-origin: 40px 41.6px;
  animation: l_legs 2s 0.1s infinite;
}

#l_leg_3 {
  transform-origin: 40px 41.6px;
  animation: l_legs 2s 0.2s infinite;
}

#l_leg_4 {
  transform-origin: 40px 41.6px;
  animation: l_legs 2s 0.3s infinite;
}

#r_leg_1 {
  transform-origin: 40px 41.6px;
  animation: r_legs 2s infinite;
}

#r_leg_2 {
  transform-origin: 40px 41.6px;
  animation: r_legs 2s 0.1s infinite;
}

#r_leg_3 {
  transform-origin: 40px 41.6px;
  animation: r_legs 2s 0.2s infinite;
}

#r_leg_4 {
  transform-origin: 40px 41.6px;
  animation: r_legs 2s 0.3s infinite;
}

@keyframes body {
  0% {
    transform: translateY(0) scale(1);
  }
  50% {
    transform: translateY(-0.85px) scale(1.005);
  }
  100% {
    transform: translateY(0) scale(1);
  }
}

@keyframes head {
  0% {
    transform: translateY(0) rotate(0deg);
  }
  5% {
    transform: rotate(-8deg);
  }
  10% {
    transform: rotate(8deg);
  }
  15%, 100% {
    transform: rotate(0deg);
  }
}

@keyframes eyes {
  0% {
    transform: translateX(0);
  }
  5% {
    transform: translateX(0.5px);
  }
  10% {
    transform: translateX(-0.5px);
  }
  15%, 100% {
    transform: translateX(0px);
  }
}

@keyframes eye_lid_3 {
  15% {
    opacity: 0;
  }
  16% {
    opacity: 1;
    transform: translateY(0px);
  }
  20% {
    opacity: 1;
    transform: translateY(3px);
  }
  24%, 54% {
    opacity: 1;
    transform: translateY(0px);
  }
  58% {
    opacity: 1;
    transform: translateY(3px);
  }
  62%, 92%  {
    opacity: 1;
    transform: translateY(0px);
  }
  96% {
    opacity: 1;
    transform: translateY(3px);
  }
  100% {
    opacity: 1;
    transform: translateY(0px);
  }
}

@keyframes eye_lid_2 {
  15% {
    opacity: 0;
  }
  16% {
    opacity: 1;
    transform: translateY(0px);
  }
  20% {
    opacity: 1;
    transform: translateY(4px);
  }
  24%, 54% {
    opacity: 1;
    transform: translateY(0px);
  }
  58% {
    opacity: 1;
    transform: translateY(4px);
  }
  62%, 92%  {
    opacity: 1;
    transform: translateY(0px);
  }
  96% {
    opacity: 1;
    transform: translateY(4px);
  }
  100% {
    opacity: 1;
    transform: translateY(0px);
  }
}

@keyframes eye_lid_1 {
  15% {
    opacity: 0;
  }
  16% {
    opacity: 1;
    transform: translateY(0px);
  }
  20% {
    opacity: 1;
    transform: translateY(5px);
  }
  24%, 54% {
    opacity: 1;
    transform: translateY(0px);
  }
  58% {
    opacity: 1;
    transform: translateY(5px);
  }
  62%, 92%  {
    opacity: 1;
    transform: translateY(0px);
  }
  96% {
    opacity: 1;
    transform: translateY(5px);
  }
  100% {
    opacity: 1;
    transform: translateY(0px);
  }
}

@keyframes l_legs {
  0% {
    transform: rotate(0deg);
  }
  50% {
    transform: rotate(-5deg);
  }
  100% {
    transform: rotate(0deg);
  }
}

@keyframes r_legs {
  0% {
    transform: rotate(0deg);
  }
  50% {
    transform: rotate(5deg);
  }
  100% {
    transform: rotate(0deg);
  }
}
</style>

<g id="spider">
<g id="l_legs">
<g id="l_leg_1">
<path id="l_leg_1_out" d="M53.7142 54.6128L49.6508 64.9999" stroke="#606060" stroke-width="4" stroke-linecap="round"/>
<path id="l_leg_1_in" d="M40 41.2581L53.7143 54.6129" stroke="#606060" stroke-width="4" stroke-linecap="round"/>
</g>
<g id="l_leg_2">
<path id="l_leg_2_out" d="M63.3651 41.2581L72 53.6236" stroke="#606060" stroke-width="4" stroke-linecap="round"/>
<path id="l_leg_2_in" d="M40 41.2581H63.3651" stroke="#606060" stroke-width="4" stroke-linecap="round"/>
</g>
<g id="l_leg_3">
<path id="l_leg_3_out" d="M55.7461 31.3655L72.0001 34.8278" stroke="#606060" stroke-width="4" stroke-linecap="round"/>
<path id="l_leg_3_in" d="M40 41.258L55.746 31.3655" stroke="#606060" stroke-width="4" stroke-linecap="round"/>
</g>
<g id="l_leg_4">
<path id="l_leg_4_out" d="M51.6825 19H64.8888" stroke="#606060" stroke-width="4" stroke-linecap="round"/>
<path id="l_leg_4_in" d="M40 41.258L51.6825 19" stroke="#606060" stroke-width="4" stroke-linecap="round"/>
</g>
</g>
<g id="r_legs">
<g id="r_leg_1">
<path id="r_leg_1_out" d="M26.2858 54.6128L30.3492 64.9999" stroke="#606060" stroke-width="4" stroke-linecap="round"/>
<path id="r_leg_1_in" d="M40 41.2581L26.2857 54.6129" stroke="#606060" stroke-width="4" stroke-linecap="round"/>
</g>
<g id="r_leg_2">
<path id="r_leg_2_out" d="M16.6349 41.2581L7.99997 53.6236" stroke="#606060" stroke-width="4" stroke-linecap="round"/>
<path id="r_leg_2_in" d="M40 41.2581H16.6349" stroke="#606060" stroke-width="4" stroke-linecap="round"/>
</g>
<g id="r_leg_3">
<path id="r_leg_3_out" d="M24.2539 31.3655L7.99994 34.8278" stroke="#606060" stroke-width="4" stroke-linecap="round"/>
<path id="r_leg_3_in" d="M40 41.258L24.254 31.3655" stroke="#606060" stroke-width="4" stroke-linecap="round"/>
</g>
<g id="r_leg_4">
<path id="r_leg_4_out" d="M28.3175 19H15.1112" stroke="#606060" stroke-width="4" stroke-linecap="round"/>
<path id="r_leg_4_in" d="M40 41.258L28.3175 19" stroke="#606060" stroke-width="4" stroke-linecap="round"/>
</g>
</g>
<ellipse id="body" cx="40" cy="30.5" rx="13" ry="15.5" fill="#464646"/>
<g id="head_frame">
  <g id="head">
  <path id="" d="M53 41.8667C53 48.5677 47.1797 54 40 54C32.8203 54 27 48.5677 27 41.8667C27 35.1656 32.8203 33 40 33C47.1797 33 53 35.1656 53 41.8667Z" fill="#555555"/>
  <g id="r_eye_1">
  <g id="r_eye_ball_1">
  <circle id="Ellipse 28" cx="36" cy="46" r="3" fill="#D65656"/>
  <path id="Vector 34" d="M36.5 43.5C34.6558 43.7267 33.687 44.852 33.5 46.5C33.5 46.5 33 45 34 44C35 43 36.5 43.5 36.5 43.5Z" fill="white" fill-opacity="0.5"/>
  </g>
  <ellipse id="r_eye_lid_1" cx="36" cy="40" rx="4" ry="3" fill="#555555"/>
  </g>
  <g id="l_eye_1">
  <g id="l_eye_ball_1">
  <circle id="Ellipse 28_2" cx="44" cy="46" r="3" fill="#D65656"/>
  <path id="Vector 34_2" d="M44.5 43.5C42.6558 43.7267 41.687 44.852 41.5 46.5C41.5 46.5 41 45 42 44C43 43 44.5 43.5 44.5 43.5Z" fill="white" fill-opacity="0.5"/>
  </g>
  <ellipse id="l_eye_lid_1" cx="44" cy="40" rx="4" ry="3" fill="#555555"/>
  </g>
  <g id="r_eye_2">
  <g id="r_eye_ball_2">
  <circle id="Ellipse 28_3" cx="31" cy="42" r="2" fill="#D65656"/>
  <path id="Vector 34_3" d="M31.3333 40.3333C30.1039 40.4845 29.458 41.2346 29.3333 42.3333C29.3333 42.3333 29 41.3333 29.6667 40.6667C30.3333 40 31.3333 40.3333 31.3333 40.3333Z" fill="white" fill-opacity="0.5"/>
  </g>
  <path id="r_eye_lid_2" d="M31 39.5C32.6568 39.5 34 38.4926 34 37.25C34 36.0074 32.6568 35 31 35L28.1194 37.8806C28.4829 38.8163 29.635 39.5 31 39.5Z" fill="#555555"/>
  </g>
  <g id="l_eye_2">
  <g id="l_eye_ball_2">
  <circle id="Ellipse 28_4" cx="49" cy="42" r="2" fill="#D65656"/>
  <path id="Vector 34_4" d="M49.3333 40.3333C48.1039 40.4845 47.458 41.2346 47.3333 42.3333C47.3333 42.3333 47 41.3333 47.6667 40.6667C48.3333 40 49.3333 40.3333 49.3333 40.3333Z" fill="white" fill-opacity="0.5"/>
  </g>
  <path id="l_eye_lid_2" d="M49 39.5C47.3431 39.5 46 38.4926 46 37.25C46 36.0074 47.3431 35 49 35L51.8806 37.8806C51.517 38.8163 50.365 39.5 49 39.5Z" fill="#555555"/>
  </g>
  <g id="r_eye_3">
  <g id="r_eye_ball_3">
  <circle id="Ellipse 28_5" cx="35.5" cy="39.5" r="1.5" fill="#D65656"/>
  <path id="Vector 34_5" d="M35.75 38.25C34.8279 38.3634 34.3435 38.926 34.25 39.75C34.25 39.75 34 39 34.5 38.5C35 38 35.75 38.25 35.75 38.25Z" fill="white" fill-opacity="0.5"/>
  </g>
  <ellipse id="r_eye_lid_3" cx="35.5" cy="35.75" rx="2.5" ry="1.75" fill="#555555"/>
  </g>
  <g id="l_eye_3">
  <g id="l_eye_ball_3">
  <circle id="Ellipse 28_6" cx="44.5" cy="39.5" r="1.5" fill="#D65656"/>
  <path id="Vector 34_6" d="M44.75 38.25C43.8279 38.3634 43.3435 38.926 43.25 39.75C43.25 39.75 43 39 43.5 38.5C44 38 44.75 38.25 44.75 38.25Z" fill="white" fill-opacity="0.5"/>
  </g>
  <ellipse id="l_eye_lid_3" cx="44.5" cy="35.75" rx="2.5" ry="1.75" fill="#555555"/>
  </g>
  <g id="mouth">
  <path d="M38.5 50.2007C38.3683 50.2388 38.243 50.2817 38.125 50.329L38.5 51.5L38.875 50.109C38.7452 50.1353 38.62 50.166 38.5 50.2007Z" fill="white"/>
  <path d="M40 53C41.6569 53 43 52.3284 43 51.5C43 51.0263 42.5608 50.6039 41.875 50.329L41.5 51.5L41.125 50.109C40.7776 50.0387 40.3978 50 40 50C39.6022 50 39.2224 50.0387 38.875 50.109L38.5 51.5L38.125 50.329C37.4392 50.6039 37 51.0263 37 51.5C37 52.3284 38.3431 53 40 53Z" fill="#9A6262"/>
  <path d="M41.875 50.329C41.6494 50.2386 41.3971 50.1641 41.125 50.109L41.5 51.5L41.875 50.329Z" fill="white"/>
  </g>
  </g>
</g>
</g>
</svg>
