<svg width="170" height="170" viewBox="0 0 170 170" fill="none" xmlns="http://www.w3.org/2000/svg">
<path d="M94.1727 118.856C100.903 111.702 105.97 108.374 117.203 103.651L109.187 99.0224C100.636 102.058 96.8434 104.537 91.9139 110.427L94.1727 118.856Z" fill="#E2E2E2" fill-opacity="0.25"/>
<path d="M127.891 109.822C126.134 95.2737 126.24 87.2042 130.096 73.0913L118.856 76.1029C116.11 86.3396 115.81 92.3889 117.203 103.651L127.891 109.822Z" fill="#E2E2E2" fill-opacity="0.25"/>
<path d="M118.049 28.133C97.2232 30.3939 86.2277 30.2927 69.0758 25.1934L73.0913 40.1795C85.2016 43.5912 93.5157 43.7631 109.822 42.3842L118.049 28.133Z" fill="#E2E2E2" fill-opacity="0.25"/>
<path d="M73.0913 40.1795C62.1691 49.8923 55.4202 54.2952 42.3843 60.454L53.0726 66.6249C64.3783 62.7654 69.3611 59.3823 76.1029 51.4191L73.0913 40.1795Z" fill="#E2E2E2" fill-opacity="0.25"/>
<path d="M67.1011 74.7243C68.8803 80.954 68.57 84.338 66.1711 90.2199L75.6544 87.6788C77.0643 84.3602 77.3344 82.6255 76.1195 79.931L67.1011 74.7243Z" fill="#E2E2E2" fill-opacity="0.25"/>
<path d="M28.1331 52.226C33.0761 71.4159 31.9878 82.1315 25.1935 101.2L40.1796 97.1843C46.1886 82.6969 46.3088 74.6636 42.3843 60.454L28.1331 52.226Z" fill="#E2E2E2" fill-opacity="0.25"/>
<path d="M101.2 145.082C112.985 131.231 122.748 125.937 142.142 118.049L127.891 109.822C112.962 116.102 106.223 120.513 97.1843 130.096L101.2 145.082Z" fill="#E2E2E2" fill-opacity="0.25"/>
<path d="M60.454 127.891C74.7791 125.973 82.8217 126.153 97.1843 130.096L94.1727 118.856C83.9967 115.936 77.944 115.656 66.625 117.203L60.454 127.891Z" fill="#E2E2E2" fill-opacity="0.25"/>
<path d="M51.4191 94.1726C60.1191 100.654 63.491 105.658 66.625 117.203L71.2532 109.187C68.9011 100.814 66.3181 97.1054 59.8488 91.9139L51.4191 94.1726Z" fill="#E2E2E2" fill-opacity="0.25"/>
<path d="M145.082 69.0757C129.477 56.3562 123.868 47.1972 118.049 28.133L109.822 42.3842C114.163 56.965 118.496 63.7699 130.096 73.0913L145.082 69.0757Z" fill="#E2E2E2" fill-opacity="0.25"/>
<path d="M9.1315 41.2555L28.1331 52.226M129.02 9.13144L118.049 28.133M161.144 129.02L142.142 118.049M41.2556 161.144L52.2261 142.142M85.1378 85.1378L75.6544 87.6788M85.1378 85.1378L76.1195 79.931M85.1378 85.1378L82.5967 75.6544M85.1378 85.1378L90.3445 76.1194M85.1378 85.1378L94.6212 82.5967M85.1378 85.1378L94.1561 90.3445M85.1378 85.1378L87.6789 94.6211M85.1378 85.1378L79.9311 94.1561M69.0758 25.1934C55.4055 38.6497 46.4488 44.5768 28.1331 52.226M69.0758 25.1934C86.2277 30.2927 97.2232 30.3939 118.049 28.133M69.0758 25.1934L73.0913 40.1795M69.0758 25.1934L63.397 4M145.082 69.0757C129.477 56.3562 123.868 47.1972 118.049 28.133M145.082 69.0757C138.406 86.4801 138.343 97.3841 142.142 118.049M145.082 69.0757L130.096 73.0913M145.082 69.0757L166.276 63.397M101.2 145.082C112.985 131.231 122.748 125.937 142.142 118.049M101.2 145.082C84.1867 139.451 73.2572 139.253 52.2261 142.142M101.2 145.082L97.1843 130.096M101.2 145.082L106.879 166.276M25.1935 101.2C31.9878 82.1315 33.0761 71.4159 28.1331 52.226M25.1935 101.2C39.394 114.602 44.9969 123.79 52.2261 142.142M25.1935 101.2L40.1796 97.1843M25.1935 101.2L4 106.879M28.1331 52.226L42.3843 60.454M118.049 28.133L109.822 42.3842M142.142 118.049L127.891 109.822M52.2261 142.142L60.454 127.891M42.3843 60.454C46.3088 74.6636 46.1886 82.6969 40.1796 97.1843M42.3843 60.454C55.4202 54.2952 62.1691 49.8923 73.0913 40.1795M42.3843 60.454L53.0726 66.6249M40.1796 97.1843C51.2742 106.908 55.8388 113.542 60.454 127.891M40.1796 97.1843L51.4191 94.1726M60.454 127.891C74.7791 125.973 82.8217 126.153 97.1843 130.096M60.454 127.891L66.625 117.203M97.1843 130.096C106.223 120.513 112.962 116.102 127.891 109.822M97.1843 130.096L94.1727 118.856M127.891 109.822C126.134 95.2737 126.24 87.2042 130.096 73.0913M127.891 109.822L117.203 103.651M130.096 73.0913C118.496 63.7699 114.163 56.965 109.822 42.3842M130.096 73.0913L118.856 76.1029M109.822 42.3842C93.5157 43.7631 85.2016 43.5912 73.0913 40.1795M109.822 42.3842L103.651 53.0726M73.0913 40.1795L76.1029 51.4191M53.0726 66.6249C55.9866 77.6924 55.7133 83.7347 51.4191 94.1726M53.0726 66.6249C64.3783 62.7654 69.3611 59.3823 76.1029 51.4191M53.0726 66.6249L61.0889 71.2531M51.4191 94.1726C60.1191 100.654 63.491 105.658 66.625 117.203M51.4191 94.1726L59.8488 91.9139M66.625 117.203C77.944 115.656 83.9967 115.936 94.1727 118.856M66.625 117.203L71.2532 109.187M94.1727 118.856C100.903 111.702 105.97 108.374 117.203 103.651M94.1727 118.856L91.9139 110.427M117.203 103.651C115.81 92.3889 116.11 86.3396 118.856 76.1029M117.203 103.651L109.187 99.0224M118.856 76.1029C109.91 69.6065 106.518 64.6222 103.651 53.0726M118.856 76.1029L110.427 78.3616M103.651 53.0726C91.7433 54.5588 85.7203 54.1808 76.1029 51.4191M103.651 53.0726L99.0224 61.0889M76.1029 51.4191L78.3616 59.8488M61.0889 71.2531C63.115 79.5277 62.7859 84.0325 59.8488 91.9139M61.0889 71.2531C68.9504 68.4055 72.8381 66.0612 78.3616 59.8488M61.0889 71.2531L67.1011 74.7243M59.8488 91.9139C66.3181 97.1054 68.9011 100.814 71.2532 109.187M59.8488 91.9139L66.1711 90.2199M71.2532 109.187C79.7603 107.722 84.3081 108.006 91.9139 110.427M71.2532 109.187L74.7243 103.174M91.9139 110.427C96.8434 104.537 100.636 102.058 109.187 99.0224M91.9139 110.427L90.2199 104.105M109.187 99.0224C108.554 90.2884 108.395 85.5081 110.427 78.3616M109.187 99.0224L103.174 95.5512M110.427 78.3616C104.1 72.5005 101.641 68.6995 99.0224 61.0889M110.427 78.3616L104.105 80.0556M99.0224 61.0889C90.5042 62.8348 85.9022 62.9516 78.3616 59.8488M99.0224 61.0889L95.5513 67.1011M78.3616 59.8488L80.0557 66.171M67.1011 74.7243C68.8803 80.954 68.57 84.338 66.1711 90.2199M67.1011 74.7243C73.3482 72.9257 76.2359 71.1191 80.0557 66.171M67.1011 74.7243L76.1195 79.931M66.1711 90.2199C71.5712 93.7353 73.321 96.6712 74.7243 103.174M66.1711 90.2199L75.6544 87.6788M74.7243 103.174C80.651 101.13 84.0193 100.89 90.2199 104.105M74.7243 103.174L79.9311 94.1561M90.2199 104.105C93.966 99.3843 96.7718 97.478 103.174 95.5512M90.2199 104.105L87.6789 94.6211M103.174 95.5512C101.57 89.707 101.612 86.3338 104.105 80.0556M103.174 95.5512L94.1561 90.3445M104.105 80.0556C99.7041 75.6993 97.7919 72.8855 95.5513 67.1011M104.105 80.0556L94.6212 82.5967M95.5513 67.1011C89.005 69.0286 85.5118 69.2813 80.0557 66.171M95.5513 67.1011L90.3445 76.1194M80.0557 66.171L82.5967 75.6544M75.6544 87.6788C77.0643 84.3602 77.3344 82.6255 76.1195 79.931M75.6544 87.6788C78.1837 89.4274 79.2843 90.6931 79.9311 94.1561M76.1195 79.931C79.1176 78.7936 80.6086 77.9154 82.5967 75.6544M82.5967 75.6544C85.4289 76.9615 87.0338 77.5924 90.3445 76.1194M90.3445 76.1194C90.9381 79.2904 91.8752 80.7252 94.6212 82.5967M94.6212 82.5967C93.4546 85.5587 93.3832 87.2668 94.1561 90.3445M94.1561 90.3445C90.8041 91.0317 89.3823 91.9637 87.6789 94.6211M87.6789 94.6211C84.9738 93.5425 83.3477 93.2463 79.9311 94.1561" stroke="white" stroke-opacity="0.66" stroke-width="3" stroke-linecap="round" stroke-linejoin="round"/>
</svg>
