<svg width="847" height="663" viewBox="0 0 847 663" fill="none" xmlns="http://www.w3.org/2000/svg">
<rect y="0.348633" width="148" height="662" rx="74" fill="#F04C1C"/>
<path d="M384.363 536.061C413.262 564.96 413.262 611.814 384.363 640.713C355.464 669.612 308.61 669.612 279.711 640.713L74.8433 435.845L22.3245 383.326C-6.57431 354.427 -6.57431 307.573 22.3245 278.674C51.2233 249.775 98.0774 249.775 126.976 278.674L384.363 536.061Z" fill="#F04C1C"/>
<path d="M384.363 126.326L126.976 383.713C98.1432 412.546 98.0779 459.253 126.78 488.167L22.325 383.326C7.89823 368.9 0.673551 349.998 0.650985 331.089C0.726278 312.25 7.95078 293.435 22.3245 279.061L279.711 21.6741C308.61 -7.2247 355.464 -7.2247 384.363 21.6741C413.262 50.5729 413.262 97.4271 384.363 126.326Z" fill="#F04C1C"/>
<rect x="846.037" y="662.038" width="148" height="662" rx="74" transform="rotate(-180 846.037 662.038)" fill="#F04C1C"/>
<path d="M461.674 126.326C432.775 97.4269 432.775 50.5727 461.674 21.6739C490.573 -7.22485 537.427 -7.22484 566.326 21.674L771.194 226.542L823.713 279.061C852.611 307.96 852.611 354.814 823.713 383.713C794.814 412.611 747.96 412.611 719.061 383.713L461.674 126.326Z" fill="#F04C1C"/>
<path d="M461.674 536.061L719.061 278.674C747.894 249.841 747.959 203.134 719.257 174.22L823.712 279.06C838.139 293.487 845.364 312.389 845.386 331.297C845.311 350.136 838.086 368.952 823.713 383.326L566.326 640.713C537.427 669.611 490.573 669.611 461.674 640.713C432.775 611.814 432.775 564.96 461.674 536.061Z" fill="#F04C1C"/>
</svg>
