<svg width="512" height="512" viewBox="0 0 512 512" fill="none" xmlns="http://www.w3.org/2000/svg">
<path d="M418.062 267.408C416.815 260.792 411.036 256 404.304 256H184.884C176.113 256 169.502 263.973 171.126 272.592L209.938 478.592C211.185 485.208 216.964 490 223.696 490H443.116C451.887 490 458.498 482.027 456.874 473.408L418.062 267.408Z" fill="#DC471B"/>
<path d="M418.062 244.592C416.815 251.208 411.036 256 404.304 256H184.884C176.113 256 169.502 248.027 171.126 239.408L209.938 33.4079C211.185 26.7919 216.964 22 223.696 22H443.116C451.887 22 458.498 29.9728 456.874 38.5921L418.062 244.592Z" fill="#F04C1C"/>
<path fill-rule="evenodd" clip-rule="evenodd" d="M168.001 256H415.913L437.957 373H190.045L168.001 256Z" fill="#DC471B"/>
<path fill-rule="evenodd" clip-rule="evenodd" d="M168.001 256H415.913L437.957 139H190.045L168.001 256Z" fill="#F04C1C"/>
<path d="M68 22H134C142.284 22 149 28.9993 149 37.6334V404.505C149 406.899 148.472 409.262 147.458 411.41L134 439.9L114.458 481.272C108.96 492.909 93.0397 492.909 87.5424 481.272L54.5424 411.41C53.5277 409.262 53 406.899 53 404.505V37.6334C53 28.9993 59.7157 22 68 22Z" fill="#F04C1C"/>
<path d="M149 404.505V37.6334C149 28.9993 142.284 22 134 22V439.9L147.458 411.41C148.472 409.262 149 406.899 149 404.505Z" fill="#DC471B"/>
<path fill-rule="evenodd" clip-rule="evenodd" d="M149 72H53V108.5H149V72Z" fill="#F87751"/>
<path d="M149 72H53V108.5H149V72Z" fill="#F87751"/>
<path d="M134 108.5H149V72H134V108.5Z" fill="#E15F39"/>
</svg>
